<?xml version="1.0" encoding="utf-8"?>
<!-- Generator: Adobe Illustrator 24.3.0, SVG Export Plug-In . SVG Version: 6.00 Build 0)  -->
<svg version="1.1" id="Layer_1" xmlns="http://www.w3.org/2000/svg" xmlns:xlink="http://www.w3.org/1999/xlink" x="0px" y="0px"
	 viewBox="0 0 200 200" style="enable-background:new 0 0 200 200;" xml:space="preserve">
<style type="text/css">
	.st0{fill:none;stroke:#000000;stroke-width:8;stroke-linecap:round;stroke-linejoin:round;stroke-miterlimit:10;}
	.st1{fill:#FFFFFF;}
	.st2{fill:none;stroke:#FFFFFF;stroke-width:8;stroke-linecap:round;stroke-linejoin:round;stroke-miterlimit:10;}
	.st3{fill:#FFFFFF;stroke:#000000;stroke-width:8;stroke-linecap:round;stroke-linejoin:round;stroke-miterlimit:10;}
</style>
<g>
	<g>
		<path d="M100,200c-26.71,0-51.82-10.4-70.71-29.29S0,126.71,0,100s10.4-51.82,29.29-70.71C48.18,10.4,73.29,0,100,0
			s51.82,10.4,70.71,29.29C189.6,48.18,200,73.29,200,100s-10.4,51.82-29.29,70.71S126.71,200,100,200z M100,2.63
			c-26.01,0-50.46,10.13-68.85,28.52S2.63,73.99,2.63,100s10.13,50.46,28.52,68.85s42.84,28.52,68.85,28.52s50.46-10.13,68.85-28.52
			s28.52-42.84,28.52-68.85s-10.13-50.46-28.52-68.85S126.01,2.63,100,2.63z"/>
		<path d="M100,187.66c-23.42,0-45.43-9.12-61.99-25.68C21.45,145.43,12.34,123.42,12.34,100s9.12-45.43,25.68-61.99
			C54.57,21.45,76.58,12.34,100,12.34s45.43,9.12,61.99,25.68c16.56,16.56,25.68,38.57,25.68,61.99s-9.12,45.43-25.68,61.99
			C145.43,178.55,123.42,187.66,100,187.66z M100,14.97c-22.71,0-44.07,8.84-60.13,24.91S14.97,77.29,14.97,100
			s8.84,44.07,24.91,60.13s37.41,24.91,60.13,24.91s44.07-8.84,60.13-24.91s24.91-37.41,24.91-60.13s-8.84-44.07-24.91-60.13
			S122.71,14.97,100,14.97z"/>
		<path d="M100,88.98c-8.23,0-14.68-14.67-14.68-33.39S91.77,22.2,100,22.2s14.68,14.67,14.68,33.39c0,8.58-1.38,16.71-3.89,22.89
			c-0.27,0.67-1.04,1-1.71,0.72c-0.67-0.27-1-1.04-0.72-1.71c2.39-5.87,3.7-13.65,3.7-21.9c0-18.4-6.23-30.76-12.04-30.76
			S87.96,37.19,87.96,55.59S94.18,86.35,100,86.35c2.32,0,4.22-1.89,5.41-3.47c0.44-0.58,1.26-0.7,1.84-0.26
			c0.58,0.44,0.7,1.26,0.26,1.84C105.29,87.42,102.69,88.98,100,88.98z"/>
		<path d="M119.87,76.44c-1.36,0-2.82-0.11-4.38-0.32c-6.87-0.95-14.96-3.87-22.81-8.23c-12.23-6.8-21.35-15.75-23.24-22.8
			c-0.64-2.39-0.44-4.48,0.59-6.21c1.4-2.34,4.25-3.75,8.23-4.06c0.73-0.06,1.36,0.48,1.42,1.21c0.06,0.72-0.48,1.36-1.21,1.42
			c-2.16,0.17-4.99,0.8-6.18,2.79c-0.65,1.09-0.76,2.5-0.31,4.17c1.69,6.3,10.52,14.81,21.97,21.18c10.2,5.67,19.52,8.23,25.86,8.23
			c3.97,0,6.76-1,7.88-2.87c0.65-1.09,0.76-2.5,0.31-4.17c-1.69-6.3-10.52-14.81-21.98-21.18c-7.42-4.12-15.07-6.92-21.54-7.87
			c-0.72-0.11-1.22-0.77-1.11-1.49c0.11-0.72,0.77-1.22,1.49-1.11c6.78,1,14.75,3.9,22.44,8.18c12.23,6.8,21.35,15.75,23.24,22.8
			c0.64,2.39,0.44,4.48-0.59,6.21C128.34,75.02,124.82,76.44,119.87,76.44z"/>
		<path d="M80.13,76.44c-4.95,0-8.47-1.42-10.1-4.13c-1.03-1.73-1.23-3.82-0.59-6.21c1.89-7.05,11.01-16,23.24-22.8
			c7.71-4.29,15.7-7.19,22.5-8.18c0.72-0.1,1.39,0.39,1.49,1.11c0.1,0.72-0.39,1.39-1.11,1.49c-6.49,0.95-14.16,3.74-21.6,7.88
			C82.5,51.97,73.67,60.48,71.98,66.78c-0.45,1.68-0.35,3.08,0.31,4.17c2.91,4.85,17.16,3.86,33.75-5.36
			c11.46-6.37,20.29-14.88,21.98-21.18c0.45-1.68,0.35-3.08-0.31-4.17c-1.19-1.98-3.97-2.61-6.1-2.79c-0.72-0.06-1.26-0.7-1.2-1.42
			c0.06-0.72,0.7-1.26,1.42-1.2c3.93,0.33,6.75,1.73,8.14,4.06c1.03,1.73,1.23,3.82,0.59,6.21c-1.89,7.05-11.01,16-23.24,22.8
			c-7.84,4.36-15.94,7.28-22.81,8.23C82.95,76.33,81.49,76.44,80.13,76.44z"/>
		<path d="M100,61.84c-3.45,0-6.25-2.8-6.25-6.25c0-3.45,2.8-6.25,6.25-6.25s6.25,2.8,6.25,6.25
			C106.25,59.04,103.45,61.84,100,61.84z M100,51.97c-2,0-3.62,1.62-3.62,3.62c0,2,1.62,3.62,3.62,3.62s3.62-1.62,3.62-3.62
			C103.62,53.6,102,51.97,100,51.97z"/>
		<path d="M118.53,40.51c-1.14,0-2.28-0.42-3.15-1.25c-0.86-0.82-1.33-1.93-1.33-3.1c0-1.17,0.47-2.27,1.33-3.1
			c1.73-1.67,4.56-1.67,6.29,0c0.86,0.82,1.33,1.93,1.33,3.1c0,1.17-0.47,2.27-1.33,3.1C120.81,40.09,119.67,40.51,118.53,40.51z
			 M118.53,34.43c-0.48,0-0.96,0.18-1.32,0.53c-0.34,0.32-0.52,0.75-0.52,1.2c0,0.45,0.19,0.88,0.52,1.2c0.73,0.7,1.91,0.7,2.64,0
			c0.34-0.32,0.52-0.75,0.52-1.2c0-0.45-0.19-0.88-0.52-1.2C119.48,34.6,119,34.43,118.53,34.43z"/>
		<path d="M108.24,85.45c-1.17,0-2.35-0.43-3.24-1.29c-0.88-0.85-1.37-1.98-1.37-3.19c0-1.21,0.49-2.34,1.37-3.19
			c1.79-1.72,4.69-1.72,6.48,0c0.88,0.85,1.37,1.98,1.37,3.19c0,1.21-0.49,2.34-1.37,3.19c0,0,0,0,0,0
			C110.58,85.01,109.41,85.45,108.24,85.45z M110.56,83.21L110.56,83.21L110.56,83.21z M108.24,79.11c-0.51,0-1.02,0.19-1.41,0.56
			c-0.36,0.35-0.56,0.81-0.56,1.29c0,0.49,0.2,0.95,0.56,1.29c0.78,0.75,2.05,0.75,2.83,0c0.36-0.35,0.56-0.81,0.56-1.29
			c0-0.49-0.2-0.95-0.56-1.29C109.26,79.3,108.75,79.11,108.24,79.11z"/>
		<path d="M81.5,40.51c-1.14,0-2.28-0.42-3.15-1.25c-0.86-0.82-1.33-1.93-1.33-3.1c0-1.17,0.47-2.27,1.33-3.1
			c1.73-1.67,4.56-1.67,6.29,0c0.86,0.82,1.33,1.93,1.33,3.1c0,1.17-0.47,2.27-1.33,3.1C83.78,40.09,82.64,40.51,81.5,40.51z
			 M81.5,34.43c-0.48,0-0.96,0.18-1.32,0.53c-0.34,0.32-0.52,0.75-0.52,1.2c0,0.45,0.19,0.88,0.52,1.2c0.73,0.7,1.91,0.7,2.64,0
			c0.34-0.32,0.52-0.75,0.52-1.2c0-0.45-0.19-0.88-0.52-1.2C82.46,34.6,81.98,34.43,81.5,34.43z"/>
		<path d="M86.82,137.04c-4.28,0-7.76-3.48-7.76-7.76c0-4.28,3.48-7.76,7.76-7.76c4.28,0,7.76,3.48,7.76,7.76
			C94.59,133.56,91.1,137.04,86.82,137.04z M86.82,124.15c-2.83,0-5.13,2.3-5.13,5.13c0,2.83,2.3,5.13,5.13,5.13
			c2.83,0,5.13-2.3,5.13-5.13C91.95,126.45,89.65,124.15,86.82,124.15z"/>
		<path d="M114.92,130.6H86.84c-0.73,0-1.32-0.59-1.32-1.32s0.59-1.32,1.32-1.32h28.08c0.73,0,1.32,0.59,1.32,1.32
			S115.64,130.6,114.92,130.6z"/>
		<path d="M86.82,124.15c-0.66,0-1.23-0.49-1.31-1.17c-0.08-0.72,0.44-1.37,1.16-1.46l32.91-3.78c0.72-0.08,1.37,0.43,1.46,1.16
			c0.08,0.72-0.44,1.37-1.16,1.46l-32.91,3.78C86.92,124.14,86.87,124.15,86.82,124.15z"/>
		<path d="M119.35,140.79c-0.05,0-0.1,0-0.15-0.01l-32.53-3.75c-0.72-0.08-1.24-0.74-1.16-1.46c0.08-0.72,0.74-1.24,1.46-1.16
			l32.53,3.75c0.72,0.08,1.24,0.74,1.16,1.46C120.58,140.3,120.01,140.79,119.35,140.79z"/>
		<path d="M58.2,176.89c-0.24,0-0.48-0.06-0.69-0.2c-0.62-0.38-0.81-1.19-0.43-1.81c9.45-15.27,25.52-24.39,42.98-24.39
			c17.44,0,33.5,9.1,42.95,24.34c0.38,0.62,0.19,1.43-0.42,1.81c-0.62,0.38-1.43,0.19-1.81-0.42
			c-8.97-14.46-24.19-23.09-40.72-23.09c-16.55,0-31.78,8.65-40.75,23.14C59.07,176.67,58.64,176.89,58.2,176.89z"/>
		<path d="M76.95,184.55c-0.08,0-0.17-0.01-0.26-0.03c-0.71-0.14-1.18-0.83-1.03-1.55c3.92-19.74,13.5-32.49,24.41-32.49
			c10.9,0,20.48,12.74,24.4,32.45c0.14,0.71-0.32,1.41-1.03,1.55c-0.71,0.14-1.41-0.32-1.55-1.03
			c-3.61-18.15-12.38-30.34-21.82-30.34c-9.45,0-18.22,12.2-21.83,30.37C78.11,184.12,77.56,184.55,76.95,184.55z"/>
		<path d="M100.06,187.66c-0.73,0-1.32-0.59-1.32-1.32v-34.54c0-0.73,0.59-1.32,1.32-1.32s1.32,0.59,1.32,1.32v34.54
			C101.38,187.08,100.79,187.66,100.06,187.66z"/>
		<path d="M55.35,103.37c-1.19,0-2.87-0.72-4.11-4.14c-0.72-1.97-1.44-2.41-1.64-2.41c-0.2,0-0.93,0.44-1.64,2.4
			c0,0.01-0.01,0.02-0.01,0.03c-1.23,3.4-2.91,4.11-4.1,4.11s-2.87-0.72-4.11-4.14c-0.72-1.97-1.44-2.41-1.64-2.41
			c-0.2,0-0.93,0.44-1.64,2.4c0,0.01-0.01,0.02-0.01,0.03c-1.23,3.4-2.91,4.11-4.1,4.11c-1.19,0-2.87-0.72-4.11-4.14l-0.02-0.05
			c-0.71-1.95-1.44-2.39-1.64-2.39h0c-0.2,0-0.92,0.44-1.63,2.37c-0.25,0.68-1.01,1.03-1.69,0.78s-1.03-1.01-0.78-1.69
			c1.24-3.39,2.91-4.1,4.1-4.1c0,0,0,0,0,0c1.19,0,2.87,0.72,4.11,4.13l0.02,0.05c0.71,1.97,1.44,2.41,1.64,2.41
			c0.2,0,0.93-0.44,1.64-2.4c0-0.01,0.01-0.02,0.01-0.03c1.23-3.4,2.91-4.11,4.1-4.11s2.87,0.72,4.11,4.14
			c0.72,1.97,1.44,2.41,1.64,2.41c0.2,0,0.93-0.44,1.64-2.4c0-0.01,0.01-0.02,0.01-0.03c1.23-3.4,2.91-4.11,4.1-4.11
			c1.19,0,2.87,0.72,4.11,4.14c0.72,1.97,1.44,2.41,1.64,2.41c0.2,0,0.93-0.44,1.64-2.4c0-0.01,0.01-0.02,0.01-0.03
			c0.26-0.68,1.03-1.01,1.7-0.75c0.68,0.26,1.01,1.03,0.75,1.7C58.22,102.66,56.54,103.37,55.35,103.37z"/>
		<path d="M154.32,102.96c-0.52,0-1-0.3-1.22-0.81c-0.28-0.67,0.04-1.44,0.71-1.72l7.89-3.29c0.67-0.28,1.44,0.04,1.72,0.71
			c0.28,0.67-0.04,1.44-0.71,1.72l-7.89,3.29C154.66,102.93,154.49,102.96,154.32,102.96z"/>
		<path d="M158.27,101.32c-0.06,0-0.11,0-0.17-0.01c-0.72-0.09-1.23-0.75-1.14-1.47l1.26-9.87c0.25-1.99,2.02-3.56,4.02-3.56
			c1.09,0,2.08,0.48,2.73,1.3c0.44,0.57,0.34,1.4-0.23,1.85c-0.57,0.45-1.4,0.34-1.85-0.23c-0.14-0.18-0.37-0.29-0.65-0.29
			c-0.67,0-1.32,0.59-1.41,1.26l-1.26,9.87C159.49,100.83,158.92,101.32,158.27,101.32z"/>
		<path d="M154.3,113.59c-1.09,0-2.08-0.48-2.73-1.3c-0.44-0.57-0.34-1.4,0.23-1.85c0.57-0.44,1.4-0.34,1.85,0.23
			c0.14,0.18,0.37,0.29,0.65,0.29c0.67,0,1.32-0.59,1.41-1.26l1.26-9.87c0.09-0.72,0.75-1.23,1.47-1.14
			c0.72,0.09,1.23,0.75,1.14,1.47l-1.26,9.87C158.06,112.03,156.3,113.59,154.3,113.59z"/>
		<path d="M169.78,101.32c-0.06,0-0.11,0-0.17-0.01c-0.72-0.09-1.23-0.75-1.14-1.47l1.26-9.87c0.25-1.99,2.02-3.56,4.02-3.56
			c0.73,0,1.32,0.59,1.32,1.32s-0.59,1.32-1.32,1.32c-0.67,0-1.32,0.59-1.41,1.26l-1.26,9.87
			C171,100.83,170.44,101.32,169.78,101.32z"/>
		<path d="M165.81,113.59c-0.73,0-1.32-0.59-1.32-1.32s0.59-1.32,1.32-1.32c0.67,0,1.32-0.59,1.41-1.26l1.26-9.87
			c0.09-0.72,0.75-1.23,1.47-1.14c0.72,0.09,1.23,0.75,1.14,1.47l-1.26,9.87C169.58,112.03,167.81,113.59,165.81,113.59z"/>
		<g>
			<path d="M169,153.25c-0.57,0-1.1-0.38-1.26-0.95c-4.14-14.4-13.01-27.38-24.98-36.53c-12.37-9.45-27.15-14.45-42.76-14.45
				s-30.39,5-42.76,14.45c-11.97,9.15-20.84,22.13-24.98,36.53c-0.2,0.7-0.93,1.1-1.63,0.9c-0.7-0.2-1.1-0.93-0.9-1.63
				c4.29-14.94,13.49-28.4,25.91-37.9c12.83-9.81,28.17-14.99,44.36-14.99s31.53,5.18,44.36,14.99
				c12.42,9.49,21.62,22.95,25.91,37.9c0.2,0.7-0.2,1.43-0.9,1.63C169.25,153.24,169.12,153.25,169,153.25z"/>
		</g>
		<g>
			<path d="M100,101.32c-16.19,0-31.53-5.18-44.36-14.99c-12.42-9.49-21.62-22.95-25.91-37.9c-0.2-0.7,0.2-1.43,0.9-1.63
				c0.7-0.2,1.43,0.2,1.63,0.9c4.14,14.4,13.01,27.38,24.98,36.53C69.61,93.69,84.39,98.68,100,98.68s30.39-5,42.76-14.45
				c11.97-9.15,20.84-22.13,24.98-36.53c0.2-0.7,0.93-1.1,1.63-0.9c0.7,0.2,1.1,0.93,0.9,1.63c-4.29,14.94-13.49,28.4-25.91,37.9
				C131.53,96.13,116.19,101.32,100,101.32z"/>
		</g>
		<g>
			<path d="M161.41,162.04c-0.6,0-1.15-0.42-1.28-1.04c-3.7-16.91-11.61-32.14-22.29-42.86c-10.96-11.01-24.04-16.82-37.83-16.82
				s-26.87,5.82-37.83,16.82c-10.68,10.73-18.6,25.95-22.29,42.86c-0.16,0.71-0.86,1.16-1.57,1c-0.71-0.16-1.16-0.86-1-1.57
				c3.8-17.4,11.97-33.08,23-44.16c11.46-11.51,25.19-17.6,39.7-17.6s28.24,6.09,39.7,17.6c11.03,11.08,19.2,26.76,23,44.16
				c0.16,0.71-0.29,1.41-1,1.57C161.6,162.03,161.51,162.04,161.41,162.04z"/>
		</g>
		<g>
			<path d="M100,101.32c-14.51,0-28.23-6.09-39.7-17.6c-11.03-11.08-19.2-26.76-23-44.16c-0.16-0.71,0.29-1.41,1-1.57
				c0.71-0.15,1.41,0.29,1.57,1c3.7,16.91,11.61,32.14,22.29,42.86C73.13,92.87,86.21,98.68,100,98.68s26.88-5.82,37.83-16.82
				c10.68-10.73,18.6-25.95,22.29-42.86c0.16-0.71,0.86-1.16,1.57-1c0.71,0.16,1.16,0.86,1,1.57c-3.8,17.4-11.97,33.08-23,44.16
				C128.24,95.23,114.51,101.32,100,101.32z"/>
		</g>
	</g>
</g>
</svg>
